<?xml version="1.0" encoding="UTF-8" ?>
<!DOCTYPE svg PUBLIC "-//W3C//DTD SVG 1.1//EN" "http://www.w3.org/Graphics/SVG/1.1/DTD/svg11.dtd">
<svg width="148pt" height="148pt" viewBox="0 0 148 148" version="1.1" xmlns="http://www.w3.org/2000/svg">
<g id="#000000ff">
<path fill="#000000" opacity="1.00" d=" M 0.00 0.00 L 148.00 0.00 L 148.00 148.00 L 0.00 148.00 L 0.00 0.00 M 40.95 11.48 C 46.84 22.04 52.98 32.46 58.91 42.99 C 62.62 41.08 66.61 39.75 70.74 39.14 C 70.88 27.24 71.39 15.35 71.25 3.45 C 60.69 3.76 50.23 6.40 40.95 11.48 M 76.91 3.44 C 76.65 15.24 76.38 27.05 76.22 38.85 C 80.79 39.28 85.29 40.40 89.45 42.39 C 95.90 32.37 102.18 22.23 108.56 12.17 C 98.88 6.83 87.95 3.85 76.91 3.44 M 13.65 36.76 C 24.46 43.06 35.30 49.30 46.17 55.49 C 48.39 51.86 51.15 48.59 54.47 45.93 C 48.37 35.38 42.32 24.79 36.33 14.18 C 27.18 19.86 19.38 27.64 13.65 36.76 M 10.90 41.41 C 6.21 50.51 3.26 60.56 2.80 70.81 C 15.82 70.67 28.85 70.79 41.88 70.74 C 41.99 67.21 42.73 63.75 43.87 60.42 C 32.91 54.03 21.88 47.76 10.90 41.41 M 65.22 53.90 C 65.27 66.02 65.27 78.15 65.22 90.27 C 75.57 83.98 85.92 77.70 96.25 71.36 C 85.94 65.47 75.56 59.73 65.22 53.90 M 2.73 76.25 C 2.78 87.87 5.89 99.47 11.56 109.61 C 22.96 102.20 34.41 94.86 45.78 87.40 C 43.93 83.92 42.73 80.15 42.13 76.26 C 29.00 76.24 15.86 76.25 2.73 76.25 M 107.16 78.01 C 106.35 80.82 105.42 83.60 104.37 86.34 C 115.92 92.63 127.52 98.82 139.11 105.05 C 143.34 96.70 145.36 87.37 145.87 78.06 C 132.96 77.92 120.06 78.03 107.16 78.01 M 91.36 100.25 C 99.40 111.41 107.25 122.72 115.48 133.74 C 123.80 127.79 131.00 120.15 135.94 111.15 C 124.63 104.20 113.27 97.33 101.89 90.49 C 98.90 94.26 95.45 97.68 91.36 100.25 M 14.30 114.39 C 19.97 122.96 27.47 130.26 36.22 135.65 C 43.80 124.00 51.29 112.29 58.80 100.61 C 54.94 98.34 51.49 95.42 48.70 91.92 C 37.26 99.45 25.59 106.63 14.30 114.39 M 40.92 138.38 C 50.47 143.27 61.03 146.09 71.75 146.49 C 71.74 132.54 71.76 118.59 71.75 104.63 C 69.05 104.20 66.36 103.64 63.74 102.88 C 56.13 114.71 48.46 126.50 40.92 138.38 M 77.26 104.65 C 77.26 118.56 77.25 132.47 77.24 146.38 C 88.50 146.03 99.60 142.80 109.39 137.26 C 101.94 125.63 94.50 114.00 87.05 102.36 C 83.89 103.52 80.60 104.26 77.26 104.65 Z" />
</g>
<g id="#00efd7ff">
<path fill="#00efd7" opacity="1.00" d=" M 40.95 11.48 C 50.23 6.40 60.69 3.76 71.25 3.45 C 71.39 15.35 70.88 27.24 70.74 39.14 C 66.61 39.75 62.62 41.08 58.91 42.99 C 52.98 32.46 46.84 22.04 40.95 11.48 Z" />
<path fill="#00efd7" opacity="1.00" d=" M 76.91 3.44 C 87.95 3.85 98.88 6.83 108.56 12.17 C 102.18 22.23 95.90 32.37 89.45 42.39 C 85.29 40.40 80.79 39.28 76.22 38.85 C 76.38 27.05 76.65 15.24 76.91 3.44 Z" />
<path fill="#00efd7" opacity="1.00" d=" M 13.65 36.76 C 19.38 27.64 27.18 19.86 36.33 14.18 C 42.32 24.79 48.37 35.38 54.47 45.93 C 51.15 48.59 48.39 51.86 46.17 55.49 C 35.30 49.30 24.46 43.06 13.65 36.76 Z" />
<path fill="#00efd7" opacity="1.00" d=" M 10.90 41.41 C 21.88 47.76 32.91 54.03 43.87 60.42 C 42.73 63.75 41.99 67.21 41.88 70.74 C 28.85 70.79 15.82 70.67 2.80 70.81 C 3.26 60.56 6.21 50.51 10.90 41.41 Z" />
<path fill="#00efd7" opacity="1.00" d=" M 2.73 76.25 C 15.86 76.25 29.00 76.24 42.13 76.26 C 42.73 80.15 43.93 83.92 45.78 87.40 C 34.41 94.86 22.96 102.20 11.56 109.61 C 5.89 99.47 2.78 87.87 2.73 76.25 Z" />
<path fill="#00efd7" opacity="1.00" d=" M 14.30 114.39 C 25.59 106.63 37.26 99.45 48.70 91.92 C 51.49 95.42 54.94 98.34 58.80 100.61 C 51.29 112.29 43.80 124.00 36.22 135.65 C 27.47 130.26 19.97 122.96 14.30 114.39 Z" />
</g>
<g id="#ffffffff">
<path fill="#ffffff" opacity="1.00" d=" M 65.22 53.90 C 75.56 59.73 85.94 65.47 96.25 71.36 C 85.92 77.70 75.57 83.98 65.22 90.27 C 65.27 78.15 65.27 66.02 65.22 53.90 Z" />
</g>
<g id="#00504dff">
<path fill="#00504d" opacity="1.00" d=" M 107.16 78.01 C 120.06 78.03 132.96 77.92 145.87 78.06 C 145.36 87.37 143.34 96.70 139.11 105.05 C 127.52 98.82 115.92 92.63 104.37 86.34 C 105.42 83.60 106.35 80.82 107.16 78.01 Z" />
</g>
<g id="#006864ff">
<path fill="#006864" opacity="1.00" d=" M 91.36 100.25 C 95.45 97.68 98.90 94.26 101.89 90.49 C 113.27 97.33 124.63 104.20 135.94 111.15 C 131.00 120.15 123.80 127.79 115.48 133.74 C 107.25 122.72 99.40 111.41 91.36 100.25 Z" />
</g>
<g id="#00b1a8ff">
<path fill="#00b1a8" opacity="1.00" d=" M 40.92 138.38 C 48.46 126.50 56.13 114.71 63.74 102.88 C 66.36 103.64 69.05 104.20 71.75 104.63 C 71.76 118.59 71.74 132.54 71.75 146.49 C 61.03 146.09 50.47 143.27 40.92 138.38 Z" />
</g>
<g id="#009691ff">
<path fill="#009691" opacity="1.00" d=" M 77.26 104.65 C 80.60 104.26 83.89 103.52 87.05 102.36 C 94.50 114.00 101.94 125.63 109.39 137.26 C 99.60 142.80 88.50 146.03 77.24 146.38 C 77.25 132.47 77.26 118.56 77.26 104.65 Z" />
</g>
</svg>
